<svg width="25" height="20" viewBox="0 0 25 20" fill="none" xmlns="http://www.w3.org/2000/svg">
<path d="M2 8C0.893333 8 0 8.89333 0 10C0 11.1067 0.893333 12 2 12C3.10667 12 4 11.1067 4 10C4 8.89333 3.10667 8 2 8ZM2 0C0.893333 0 0 0.893333 0 2C0 3.10667 0.893333 4 2 4C3.10667 4 4 3.10667 4 2C4 0.893333 3.10667 0 2 0ZM2 16C0.893333 16 0 16.9067 0 18C0 19.0933 0.906667 20 2 20C3.09333 20 4 19.0933 4 18C4 16.9067 3.10667 16 2 16ZM6 19.3333H24.6667V16.6667H6V19.3333ZM6 11.3333H24.6667V8.66667H6V11.3333ZM6 0.666667V3.33333H24.6667V0.666667H6Z" fill="white"/>
</svg>
